# xmcd CD database file
#
# Track frame offsets:
#	150
#	15373
#	28860
#	48830
#	62593
#	85630
#	100858
#	117828
#	147695
#	164600
#	185023
#	201928
#	221093
#	241578
#	260300
#	277798
#
# Disc length: 3975 seconds
#
# Revision: 0
# Processed by: cddbd v1.5.1PL0 Copyright (c) Steve Scherf et al.
# Submitted via: CDex 1.51
#
DISCID=da0f8510
DTITLE=むしまるQゴールド - 大集合　大脱皮のテーマ　Disk1
DYEAR=2004
DGENRE=Other
TTITLE0=細川俊之、うらら（三石琴乃）/すてきなきみ
TTITLE1=なるちょ（鳴瀬善博）、東京珍獣合唱隊（東京ホームコーラス）/大脱皮のテーマ
TTITLE2=ＫＡＴＳＵＭＩ、江口・ヨンタナ・正祥＆はい！万平連欧州旅行です。/マッコウクジラは潜水キング
TTITLE3=堀江美都子、オカンズ/ドシラのうた
TTITLE4=川村万梨阿/キミチーター　（ボクらはヒョウ）
TTITLE5=MISUMI/ち・ぶ・さ
TTITLE6=阪口あやや/ウーパークィーンの宮殿
TTITLE7=生沢佑一＆シーガルズ/ホタル・カリフォルニア
TTITLE8=岩本恭生/あうんのドッグ
TTITLE9=オージー・ケン・ジュエル（馬場健二郎）/燃えよ！クチバシ〜カモノハシへの道〜
TTITLE10=千葉　繁＆ハムスターズ/ハムスターのひげき
TTITLE11=イサム＆ヨウコ・フロリダ’６６/ミドリガメのうた
TTITLE12=なかにし　やすし/ナメク☆ジノネバリ〜NEVER　LOSER〜
TTITLE13=おおたか　静流/クロハゲワシのワケ
TTITLE14=はっぴい　ENDO/水の中の小さなクマ
TTITLE15=日向　薫、堀江美都子/トゲナナフシかげきだん
EXTD=YEAR: 2004
EXTT0=
EXTT1=
EXTT2=
EXTT3=
EXTT4=
EXTT5=
EXTT6=
EXTT7=
EXTT8=
EXTT9=
EXTT10=
EXTT11=
EXTT12=
EXTT13=
EXTT14=
EXTT15=
PLAYORDER=
